<?xml version="1.0" encoding="UTF-8" standalone="no"?>
<!-- Created with Inkscape (http://www.inkscape.org/) -->

<svg
   width="16px"
   height="16px"
   viewBox="0 0 25.4 21.695833"
   version="1.1"
   id="svg1"
   xmlns="http://www.w3.org/2000/svg"
   xmlns:svg="http://www.w3.org/2000/svg">
  <defs
     id="defs1">
    <linearGradient
       id="linearGradient2"
       x1="83"
       y1="216"
       x2="429"
       y2="216"
       gradientUnits="userSpaceOnUse">
      <stop
         offset="0"
         stop-color="#1E5AA8"
         id="stop1" />
      <stop
         offset="1"
         stop-color="#00AFAE"
         id="stop2" />
    </linearGradient>
  </defs>
  <g
     id="layer1"
     transform="translate(-157.42708,-134.14375)">
    <g
       id="Letter"
       transform="matrix(0.0734104,0,0,0.07231944,151.33402,126.33325)">
      <path
         id="Left"
         d="m 123,140 c -21,0 -39,17 -40,38 v 192 c 1,21 19,38 40,38 21,0 39,-17 40,-38 V 178 c -1,-21 -19,-38 -40,-38 z"
         fill="#1e5aa8" />
      <path
         id="Right"
         d="m 349,285 v 85 c 1,21 19,38 40,38 21,0 39,-17 40,-38 V 182 c -11,-14 -74,63 -80,103 z"
         fill="#00afae" />
      <path
         id="Middle"
         d="m 127,108 c -34,0 -44,25 -44,40 v 54 c 30,-33 75,27 80,33 28,32 44,87 93,89 48,-2 67,-56 93,-89 0,0 45,-74 80,-80 0,-28 -11,-47 -44,-47 -34,0 -58,50 -75,72 -17,22 -25,46 -54,46 -29,0 -38,-25 -54,-46 -17,-22 -41,-72 -75,-72 z"
         fill="url(#linearGradient2)"
         style="fill:url(#linearGradient2)" />
    </g>
  </g>
</svg>
