<?xml version="1.0" encoding="UTF-8" standalone="no"?>
<svg
   width="24"
   height="24"
   viewBox="0 0 24 24"
   fill="none"
   version="1.1"
   id="svg9" xmlns:inkscape="http://www.inkscape.org/namespaces/inkscape"
   xmlns:sodipodi="http://sodipodi.sourceforge.net/DTD/sodipodi-0.dtd"
   xmlns="http://www.w3.org/2000/svg"
   xmlns:svg="http://www.w3.org/2000/svg">
  <sodipodi:namedview
     id="namedview9"
     pagecolor="#ffffff"
     bordercolor="#000000"
     borderopacity="0.25"
     inkscape:showpageshadow="2"
     inkscape:pageopacity="0.0"
     inkscape:pagecheckerboard="0"
     inkscape:deskcolor="#d1d1d1"
     inkscape:zoom="51.909939"
     inkscape:cx="9.6031706"
     inkscape:cy="11.702961"
     inkscape:window-width="1920"
     inkscape:window-height="984"
     inkscape:window-x="-9"
     inkscape:window-y="-9"
     inkscape:window-maximized="1"
     inkscape:current-layer="svg9" />
  <defs
     id="defs7">
    <linearGradient
       id="topGradient"
       x1="1.4921257"
       y1="1.6412846"
       x2="1.4921257"
       y2="17.432074"
       gradientTransform="scale(1.2783486,0.78225921)"
       gradientUnits="userSpaceOnUse">
      <stop
         offset="0%"
         style="stop-color:#b8b8b8;stop-opacity:1"
         id="stop1" />
      <stop
         offset="100%"
         style="stop-color:#888888;stop-opacity:1"
         id="stop2" />
    </linearGradient>
    <linearGradient
       id="leftGradient"
       x1="1.8225954"
       y1="6.6553316"
       x2="14.661319"
       y2="6.6553316"
       gradientTransform="scale(0.82874549,1.2066431)"
       gradientUnits="userSpaceOnUse">
      <stop
         offset="0%"
         style="stop-color:#505050;stop-opacity:1"
         id="stop3" />
      <stop
         offset="100%"
         style="stop-color:#707070;stop-opacity:1"
         id="stop4" />
    </linearGradient>
    <linearGradient
       id="rightGradient"
       x1="27.137808"
       y1="6.6553206"
       x2="14.299106"
       y2="6.6553206"
       gradientTransform="scale(0.82874414,1.206645)"
       gradientUnits="userSpaceOnUse">
      <stop
         offset="0%"
         style="stop-color:#707070;stop-opacity:1"
         id="stop5" />
      <stop
         offset="100%"
         style="stop-color:#909090;stop-opacity:1"
         id="stop6" />
    </linearGradient>
    <filter
       id="softShadow"
       x="-0.078260873"
       y="-0.069147728"
       width="1.1565217"
       height="1.1863147">
      <feGaussianBlur
         in="SourceAlpha"
         stdDeviation="0.3"
         id="feGaussianBlur6" />
      <feOffset
         dx="0"
         dy="0.5"
         result="offsetblur"
         id="feOffset6" />
      <feComponentTransfer
         id="feComponentTransfer6">
        <feFuncA
           type="linear"
           slope="0.3"
           id="feFuncA6" />
      </feComponentTransfer>
      <feMerge
         id="feMerge7">
        <feMergeNode
           id="feMergeNode6" />
        <feMergeNode
           in="SourceGraphic"
           id="feMergeNode7" />
      </feMerge>
    </filter>
  </defs>
  <path
     d="m 20.2083,7.82141 -7.7,4.45999 c -0.31,0.18 -0.7,0.18 -1.02,0 L 3.78826,7.82141 c -0.55,-0.32 -0.69,-1.07 -0.27,-1.54 0.29,-0.33 0.62,-0.6 0.97,-0.79 l 5.42,-3 c 1.16004,-0.65 3.04004,-0.65 4.20004,0 l 5.42,3 c 0.35,0.19 0.68,0.47 0.97,0.79 0.4,0.47 0.26,1.22 -0.29,1.54 z"
     fill="url(#topGradient)"
     filter="url(#softShadow)"
     id="path7"
     style="fill:url(#topGradient)"
     transform="matrix(1.0009624,0,0,0.98927422,-0.01192126,-0.27013903)" />
  <path
     d="m 11.4305,14.1389 v 6.82 c 0,0.76 -0.77,1.26 -1.45003,0.93 -2.06,-1.01 -5.53,-2.9 -5.53,-2.9 -1.22,-0.69 -2.22,-2.43 -2.22,-3.86 v -5.16 c 0,-0.79 0.83,-1.29 1.51,-0.9 l 7.19003,4.17 c 0.3,0.19 0.5,0.53 0.5,0.9 z"
     fill="url(#leftGradient)"
     filter="url(#softShadow)"
     id="path8"
     style="fill:url(#leftGradient)"
     transform="matrix(1.0009624,0,0,0.98927422,-0.01192126,-0.27013903)" />
  <path
     d="m 12.5703,14.1389 v 6.82 c 0,0.76 0.77,1.26 1.45,0.93 2.06,-1.01 5.53,-2.9 5.53,-2.9 1.22,-0.69 2.22,-2.43 2.22,-3.86 v -5.16 c 0,-0.79 -0.83,-1.29 -1.51,-0.9 l -7.19,4.17 c -0.3,0.19 -0.5,0.53 -0.5,0.9 z"
     fill="url(#rightGradient)"
     filter="url(#softShadow)"
     id="path9"
     style="fill:url(#rightGradient)"
     transform="matrix(1.0009624,0,0,0.98927422,-0.01192126,-0.27013903)" />
  <path
     d="M 11.949773,6.0129944 C 9.6223904,6.1577944 8.4061991,7.4757939 8.3,9.8591933 h 2.347782 c 0.0294,-0.8255997 0.490196,-1.4427997 1.34819,-1.5337996 0.842193,-0.089399 1.641188,0.1112 1.883186,0.6869999 0.261398,0.6219998 -0.325397,1.3447994 -0.604395,1.6481984 -0.516396,0.5626 -1.355189,0.973001 -1.789986,1.58 -0.426198,0.59481 -0.501998,1.37741 -0.534797,2.33521 h 2.069185 c 0.02901,-0.612399 0.06981,-1.199 0.348398,-1.5796 0.453195,-0.618409 1.12999,-0.908209 1.697187,-1.39661 0.541796,-0.4668 1.111792,-1.029399 1.208591,-1.9001987 C 16.563939,7.093194 14.436554,5.8577945 11.949773,6.0129944"
     fill="#000000"
     id="path1-9"
     style="fill:#ffffff;fill-opacity:1;stroke:none;stroke-width:0.199999;stroke-opacity:1" />
  <path
     id="ellipse1"
     d="m 13.309363,16.713401 a 1.3063912,1.2866003 0 0 1 -1.30639,1.2866 1.3063912,1.2866003 0 0 1 -1.306392,-1.2866 1.3063912,1.2866003 0 0 1 1.306392,-1.2866 1.3063912,1.2866003 0 0 1 1.30639,1.2866 z"
     style="fill:#ffffff;fill-opacity:1;stroke:none;stroke-width:0.199999;stroke-opacity:1" />
</svg>
