<svg role="img" viewBox="0 0 24 24" xmlns="http://www.w3.org/2000/svg"
    id="revanced" height="24" width="24">
    <title>ReVanced</title>
    <path
        d="M5.1 0a0.28 0.28 0 0 0 -0.23 0.42l6.88 11.93a0.28 0.28 0 0 0 0.48 0L19.13 0.42A0.28 0.28 0 0 0 18.9 0ZM0.5 0a0.33 0.33 0 0 0 -0.3 0.46L10.43 23.8c0.05 0.12 0.17 0.2 0.3 0.2h2.54c0.13 0 0.25 -0.08 0.3 -0.2L23.8 0.46a0.33 0.33 0 0 0 -0.3 -0.46h-2.32a0.24 0.24 0 0 0 -0.21 0.14L12.2 20.08a0.23 0.23 0 0 1 -0.42 0L3.03 0.14A0.23 0.23 0 0 0 2.82 0Z"
        fill="#000000" stroke-width="1"></path>
</svg>